<svg width="21" height="23" viewBox="0 0 21 23" fill="none" xmlns="http://www.w3.org/2000/svg">
<path d="M21.0001 5.06247L18.5001 5.06247C18.3031 5.06247 18.108 5.10128 17.926 5.17666C17.7441 5.25203 17.5787 5.3625 17.4393 5.50177C17.3001 5.64115 17.1896 5.80652 17.1142 5.98843C17.0388 6.17044 17 6.36551 17 6.56249L17 12.0625C16.5 14.0621 16.4065 14.656 15 16.0625C13.5935 17.469 12.4892 18.5625 10.5 18.5625C9.51511 18.5625 8.90995 18.4394 8 18.0625C7.09004 17.6856 6.19645 16.759 5.5 16.0625C4.80356 15.366 4.87691 15.4725 4.5 14.5625C4.12309 13.6526 4.00003 13.0474 4.00004 12.0625L4.00004 6.56295C4.0001 6.36596 3.96134 6.17078 3.88599 5.98876C3.81063 5.80675 3.70015 5.64127 3.56086 5.502C3.42155 5.36261 3.25617 5.25214 3.07416 5.17666C2.89214 5.10128 2.69705 5.06247 2.50002 5.06247L2.21288e-07 5.06247L5.49128e-07 11.5626C6.09321e-07 12.9415 0.271593 14.3068 0.79927 15.5808C1.32695 16.8547 2.10038 18.0122 3.07539 18.9872C4.05042 19.9622 5.20793 20.7356 6.48186 21.2633C7.75578 21.7909 9.12116 22.0625 10.5 22.0625C13.2848 22.0625 15.9555 20.9563 17.9247 18.9872C19.8938 17.018 21.0001 14.3473 21.0001 11.5626L21.0001 5.06247Z" fill="#EA580C"/>
<circle cx="4.5" cy="4.5" r="4.5" fill="#0F172A"/>
</svg>
