<svg width="57" height="42" viewBox="0 0 57 42" fill="none" xmlns="http://www.w3.org/2000/svg">
<path fill-rule="evenodd" clip-rule="evenodd" d="M19.158 31.9148C19.158 31.9148 22.3479 28.3927 27.6642 28.3927C32.9804 28.3927 36.5756 31.9148 36.5756 31.9148L27.8668 41.4395L19.158 31.9148ZM14.2906 27.2154C14.2906 27.2154 19.9018 21.5935 27.8666 21.5412C35.8314 21.4884 41.6106 27.2154 41.6106 27.2154L46.6544 21.5407C46.6544 21.5407 38.553 14.0282 27.8666 14.0804C17.1802 14.1332 9.03675 21.8564 9.03675 21.8564L14.2906 27.2154ZM4.72854 16.6551C4.72854 16.6551 15.1733 7.40818 27.8667 7.40818C40.56 7.40818 51.0676 16.6551 51.0676 16.6551L56.1113 11.1383C56.1113 11.1383 43.6597 -0.0520841 27.8459 0.000182522C12.0315 0.0529825 0 11.2962 0 11.2962L4.72854 16.6551Z" fill="url(#paint0_linear_2781_2944)"/>
<defs>
<linearGradient id="paint0_linear_2781_2944" x1="0" y1="2.25218e-05" x2="0" y2="41.4395" gradientUnits="userSpaceOnUse">
<stop stop-color="#19DEFE"/>
<stop offset="1" stop-color="#1E5BEF"/>
</linearGradient>
</defs>
</svg>
