<svg width="47" height="41" viewBox="0 0 47 41" fill="none" xmlns="http://www.w3.org/2000/svg">
<path d="M44.2667 0H2.66667C1.19391 0 0 1.19391 0 2.66667V37.8667C0 39.3394 1.19391 40.5333 2.66667 40.5333H44.2667C45.7394 40.5333 46.9333 39.3394 46.9333 37.8667V2.66667C46.9333 1.19391 45.7394 0 44.2667 0Z" fill="#F4B401"/>
<path d="M42.6666 3.7334H4.2666V36.8001H42.6666V3.7334Z" fill="#1BA261"/>
<path fill-rule="evenodd" clip-rule="evenodd" d="M31.7349 22.9347C28.9132 22.9347 26.5788 23.978 26.1905 25.3352H26.1338V27.7424H37.336V25.3352H37.2793C36.8911 23.978 34.5567 22.9347 31.7349 22.9347ZM31.7349 21.3344C33.0607 21.3344 34.1354 20.2597 34.1354 18.9339C34.1354 17.6082 33.0607 16.5334 31.7349 16.5334C30.4092 16.5334 29.3344 17.6082 29.3344 18.9339C29.3344 20.2597 30.4092 21.3344 31.7349 21.3344Z" fill="white" fill-opacity="0.395777"/>
<path fill-rule="evenodd" clip-rule="evenodd" d="M15.201 22.9347C12.3792 22.9347 10.0448 23.978 9.6566 25.3352H9.59985V27.7424H20.8021V25.3352H20.7454C20.3571 23.978 18.0227 22.9347 15.201 22.9347ZM15.201 21.3344C16.5267 21.3344 17.6015 20.2597 17.6015 18.9339C17.6015 17.6082 16.5267 16.5334 15.201 16.5334C13.8752 16.5334 12.8005 17.6082 12.8005 18.9339C12.8005 20.2597 13.8752 21.3344 15.201 21.3344Z" fill="white" fill-opacity="0.395777"/>
<path fill-rule="evenodd" clip-rule="evenodd" d="M23.4667 21.3334C19.7051 21.3334 16.5932 22.7242 16.0756 24.5334H16V27.7423H30.9333V24.5334H30.8577C30.3402 22.7242 27.2282 21.3334 23.4667 21.3334ZM23.4667 19.2C25.234 19.2 26.6667 17.7674 26.6667 16C26.6667 14.2327 25.234 12.8 23.4667 12.8C21.6994 12.8 20.2667 14.2327 20.2667 16C20.2667 17.7674 21.6994 19.2 23.4667 19.2Z" fill="#F7F7F7"/>
<path fill-rule="evenodd" clip-rule="evenodd" d="M27.7334 36.2667L32.0001 40.5334H41.6001L37.3334 36.2667H27.7334Z" fill="url(#paint0_linear_2781_2370)" fill-opacity="0.6"/>
<g filter="url(#filter0_d_2781_2370)">
<path d="M37.3334 34.1334H27.7334V36.2668H37.3334V34.1334Z" fill="#F1F1F1"/>
</g>
<defs>
<filter id="filter0_d_2781_2370" x="23.7334" y="29.1334" width="17.6001" height="10.1333" filterUnits="userSpaceOnUse" color-interpolation-filters="sRGB">
<feFlood flood-opacity="0" result="BackgroundImageFix"/>
<feColorMatrix in="SourceAlpha" type="matrix" values="0 0 0 0 0 0 0 0 0 0 0 0 0 0 0 0 0 0 127 0" result="hardAlpha"/>
<feOffset dy="-1"/>
<feGaussianBlur stdDeviation="2"/>
<feColorMatrix type="matrix" values="0 0 0 0 0.0784314 0 0 0 0 0.592157 0 0 0 0 0.34902 0 0 0 1 0"/>
<feBlend mode="normal" in2="BackgroundImageFix" result="effect1_dropShadow_2781_2370"/>
<feBlend mode="normal" in="SourceGraphic" in2="effect1_dropShadow_2781_2370" result="shape"/>
</filter>
<linearGradient id="paint0_linear_2781_2370" x1="23.05" y1="33.5038" x2="23.05" y2="41.0039" gradientUnits="userSpaceOnUse">
<stop stop-color="#C26003"/>
<stop offset="1" stop-color="#F4B401" stop-opacity="0.513842"/>
</linearGradient>
</defs>
</svg>
