<svg width="42" height="41" viewBox="0 0 42 41" fill="none" xmlns="http://www.w3.org/2000/svg">
<g filter="url(#filter0_i_2781_9)">
<path d="M36.3799 0H5.44658C3.67927 0 2.24658 1.43269 2.24658 3.2V8C2.24658 9.76731 3.67927 11.2 5.44658 11.2H36.3799C38.1472 11.2 39.5799 9.76731 39.5799 8V3.2C39.5799 1.43269 38.1472 0 36.3799 0Z" fill="#C4C4C4"/>
</g>
<path fill-rule="evenodd" clip-rule="evenodd" d="M9.68018 4.36183L13.6824 8.54134H17.8612L11.901 2.05334L9.68018 4.36183Z" fill="url(#paint0_linear_2781_9)"/>
<g filter="url(#filter1_d_2781_9)">
<path fill-rule="evenodd" clip-rule="evenodd" d="M10.7797 4.8001C11.6634 4.8001 12.3797 4.08378 12.3797 3.2001C12.3797 2.31642 11.6634 1.6001 10.7797 1.6001C9.89601 1.6001 9.17969 2.31642 9.17969 3.2001C9.17969 4.08378 9.89601 4.8001 10.7797 4.8001Z" fill="#EFEFEF"/>
</g>
<path fill-rule="evenodd" clip-rule="evenodd" d="M29.9468 4.36183L33.949 8.54134H38.1278L32.1676 2.05334L29.9468 4.36183Z" fill="url(#paint1_linear_2781_9)"/>
<g filter="url(#filter2_d_2781_9)">
<path fill-rule="evenodd" clip-rule="evenodd" d="M31.0463 4.8001C31.93 4.8001 32.6463 4.08378 32.6463 3.2001C32.6463 2.31642 31.93 1.6001 31.0463 1.6001C30.1626 1.6001 29.4463 2.31642 29.4463 3.2001C29.4463 4.08378 30.1626 4.8001 31.0463 4.8001Z" fill="#EFEFEF"/>
</g>
<g filter="url(#filter3_i_2781_9)">
<path fill-rule="evenodd" clip-rule="evenodd" d="M41.7778 9.60013C42.0477 7.83309 40.7979 6.40002 38.9858 6.40002H2.82872C1.01806 6.40002 -0.233463 7.83277 0.03667 9.60013L2.15598 23.465L1.00835 37.3283C0.738217 39.0957 3.09464 40.5285 4.90531 40.5285H37.0965C38.9087 40.5285 40.7247 39.0954 40.4546 37.3283L39.6585 23.4654L41.7778 9.60013Z" fill="#4687F4"/>
</g>
<g filter="url(#filter4_i_2781_9)">
<path fill-rule="evenodd" clip-rule="evenodd" d="M2.82872 6.40002H38.9858C40.7979 6.40002 42.0477 7.83309 41.7778 9.60013L39.6583 23.4667H2.15619L0.03667 9.60013C-0.233463 7.83277 1.01806 6.40002 2.82872 6.40002Z" fill="#3866D0"/>
</g>
<path fill-rule="evenodd" clip-rule="evenodd" d="M37.0975 40.5285C38.9096 40.5285 40.7257 39.0954 40.4556 37.3284L39.6527 23.7288H2.13794L18.3376 40.5285H37.0975Z" fill="url(#paint2_linear_2781_9)"/>
<path fill-rule="evenodd" clip-rule="evenodd" d="M23.5042 16.8536L30.4632 14.1938V32.593H28.3151V17.1671L23.5042 18.9582V16.8536ZM13.0905 22.2812H15.1726C16.2298 22.2812 16.9783 22.0131 17.418 21.4769C17.8579 20.9408 18.0778 20.1939 18.0778 19.2362C18.0778 18.213 17.8276 17.4354 17.3273 16.9034C16.827 16.3713 16.0886 16.1053 15.1121 16.1053C14.184 16.1053 13.4395 16.3816 12.8787 16.9341C12.3178 17.4866 12.0374 18.2212 12.0374 19.138H9.74951L9.7253 19.0643C9.68498 17.7137 10.1672 16.5657 11.1719 15.6204C12.1766 14.675 13.49 14.2023 15.1121 14.2023C16.7422 14.2023 18.0415 14.6422 19.0099 15.5221C19.9783 16.4021 20.4625 17.6565 20.4625 19.2853C20.4625 20.022 20.2426 20.7566 19.8027 21.4892C19.363 22.2218 18.7032 22.7805 17.8236 23.1652C18.8808 23.5172 19.6292 24.0696 20.0691 24.8227C20.5089 25.5757 20.7288 26.4188 20.7288 27.3519C20.7288 28.9808 20.2023 30.2618 19.1491 31.195C18.096 32.1281 16.7503 32.5946 15.1121 32.5946C13.5061 32.5946 12.1766 32.1547 11.1234 31.2748C10.0703 30.3948 9.56391 29.2018 9.60429 27.6957L9.64061 27.6221H11.9163C11.9163 28.5634 12.2008 29.3123 12.7697 29.8689C13.3387 30.4255 14.1194 30.7038 15.1121 30.7038C16.1208 30.7038 16.9117 30.4255 17.4847 29.8689C18.0576 29.3123 18.3441 28.4897 18.3441 27.401C18.3441 26.296 18.0899 25.4816 17.5815 24.9577C17.0731 24.4339 16.2701 24.1719 15.1726 24.1719H13.0905V22.2812Z" fill="#EEEEEE"/>
<path fill-rule="evenodd" clip-rule="evenodd" d="M18.5613 23.4681H13.0904V22.2812H15.1725C16.2297 22.2812 16.9781 22.0131 17.418 21.4769C17.8578 20.9408 18.0777 20.1939 18.0777 19.2362C18.0777 18.213 17.8275 17.4354 17.3272 16.9034C16.8268 16.3713 16.0884 16.1053 15.112 16.1053C14.1839 16.1053 13.4395 16.3816 12.8786 16.9341C12.3177 17.4866 12.0373 18.2212 12.0373 19.138H9.74945L9.72524 19.0643C9.68487 17.7137 10.1671 16.5657 11.1718 15.6204C12.1765 14.675 13.4899 14.2023 15.112 14.2023C16.7421 14.2023 18.0414 14.6422 19.0098 15.5221C19.9782 16.4021 20.4624 17.6565 20.4624 19.2853C20.4624 20.022 20.2425 20.7566 19.8027 21.4892C19.3628 22.2218 18.7031 22.7805 17.8235 23.1652C18.0889 23.2535 18.3348 23.3545 18.5613 23.4681ZM30.4631 23.459V14.1938L23.5042 16.8536V18.9582L28.3149 17.1671V23.459H30.4631Z" fill="#D4D4D4"/>
<g filter="url(#filter5_i_2781_9)">
<path fill-rule="evenodd" clip-rule="evenodd" d="M4.90604 40.5285H37.0972C38.9094 40.5285 40.7254 39.0954 40.4553 37.3284L39.659 23.4618H2.15698L1.00908 37.3284C0.738949 39.0958 3.09538 40.5285 4.90604 40.5285Z" fill="black" fill-opacity="0.01"/>
</g>
<defs>
<filter id="filter0_i_2781_9" x="2.24658" y="0" width="37.3333" height="12.2" filterUnits="userSpaceOnUse" color-interpolation-filters="sRGB">
<feFlood flood-opacity="0" result="BackgroundImageFix"/>
<feBlend mode="normal" in="SourceGraphic" in2="BackgroundImageFix" result="shape"/>
<feColorMatrix in="SourceAlpha" type="matrix" values="0 0 0 0 0 0 0 0 0 0 0 0 0 0 0 0 0 0 127 0" result="hardAlpha"/>
<feOffset dy="1"/>
<feGaussianBlur stdDeviation="2"/>
<feComposite in2="hardAlpha" operator="arithmetic" k2="-1" k3="1"/>
<feColorMatrix type="matrix" values="0 0 0 0 0.792157 0 0 0 0 0.792157 0 0 0 0 0.792157 0 0 0 1 0"/>
<feBlend mode="normal" in2="shape" result="effect1_innerShadow_2781_9"/>
</filter>
<filter id="filter1_d_2781_9" x="8.67969" y="1.6001" width="5.19995" height="5.19995" filterUnits="userSpaceOnUse" color-interpolation-filters="sRGB">
<feFlood flood-opacity="0" result="BackgroundImageFix"/>
<feColorMatrix in="SourceAlpha" type="matrix" values="0 0 0 0 0 0 0 0 0 0 0 0 0 0 0 0 0 0 127 0" result="hardAlpha"/>
<feOffset dx="0.5" dy="1"/>
<feGaussianBlur stdDeviation="0.5"/>
<feColorMatrix type="matrix" values="0 0 0 0 0 0 0 0 0 0 0 0 0 0 0 0 0 0 0.1 0"/>
<feBlend mode="normal" in2="BackgroundImageFix" result="effect1_dropShadow_2781_9"/>
<feBlend mode="normal" in="SourceGraphic" in2="effect1_dropShadow_2781_9" result="shape"/>
</filter>
<filter id="filter2_d_2781_9" x="28.9463" y="1.6001" width="5.19995" height="5.19995" filterUnits="userSpaceOnUse" color-interpolation-filters="sRGB">
<feFlood flood-opacity="0" result="BackgroundImageFix"/>
<feColorMatrix in="SourceAlpha" type="matrix" values="0 0 0 0 0 0 0 0 0 0 0 0 0 0 0 0 0 0 127 0" result="hardAlpha"/>
<feOffset dx="0.5" dy="1"/>
<feGaussianBlur stdDeviation="0.5"/>
<feColorMatrix type="matrix" values="0 0 0 0 0 0 0 0 0 0 0 0 0 0 0 0 0 0 0.1 0"/>
<feBlend mode="normal" in2="BackgroundImageFix" result="effect1_dropShadow_2781_9"/>
<feBlend mode="normal" in="SourceGraphic" in2="effect1_dropShadow_2781_9" result="shape"/>
</filter>
<filter id="filter3_i_2781_9" x="0" y="5.40002" width="41.8145" height="35.1284" filterUnits="userSpaceOnUse" color-interpolation-filters="sRGB">
<feFlood flood-opacity="0" result="BackgroundImageFix"/>
<feBlend mode="normal" in="SourceGraphic" in2="BackgroundImageFix" result="shape"/>
<feColorMatrix in="SourceAlpha" type="matrix" values="0 0 0 0 0 0 0 0 0 0 0 0 0 0 0 0 0 0 127 0" result="hardAlpha"/>
<feOffset dy="-1"/>
<feGaussianBlur stdDeviation="2"/>
<feComposite in2="hardAlpha" operator="arithmetic" k2="-1" k3="1"/>
<feColorMatrix type="matrix" values="0 0 0 0 0.258824 0 0 0 0 0.494118 0 0 0 0 0.913725 0 0 0 1 0"/>
<feBlend mode="normal" in2="shape" result="effect1_innerShadow_2781_9"/>
</filter>
<filter id="filter4_i_2781_9" x="0" y="6.40002" width="41.8145" height="18.0667" filterUnits="userSpaceOnUse" color-interpolation-filters="sRGB">
<feFlood flood-opacity="0" result="BackgroundImageFix"/>
<feBlend mode="normal" in="SourceGraphic" in2="BackgroundImageFix" result="shape"/>
<feColorMatrix in="SourceAlpha" type="matrix" values="0 0 0 0 0 0 0 0 0 0 0 0 0 0 0 0 0 0 127 0" result="hardAlpha"/>
<feOffset dy="1"/>
<feGaussianBlur stdDeviation="2"/>
<feComposite in2="hardAlpha" operator="arithmetic" k2="-1" k3="1"/>
<feColorMatrix type="matrix" values="0 0 0 0 0.282353 0 0 0 0 0.45098 0 0 0 0 0.831373 0 0 0 1 0"/>
<feBlend mode="normal" in2="shape" result="effect1_innerShadow_2781_9"/>
</filter>
<filter id="filter5_i_2781_9" x="0.987793" y="23.4618" width="39.4944" height="17.5667" filterUnits="userSpaceOnUse" color-interpolation-filters="sRGB">
<feFlood flood-opacity="0" result="BackgroundImageFix"/>
<feBlend mode="normal" in="SourceGraphic" in2="BackgroundImageFix" result="shape"/>
<feColorMatrix in="SourceAlpha" type="matrix" values="0 0 0 0 0 0 0 0 0 0 0 0 0 0 0 0 0 0 127 0" result="hardAlpha"/>
<feOffset dy="0.5"/>
<feGaussianBlur stdDeviation="2"/>
<feComposite in2="hardAlpha" operator="arithmetic" k2="-1" k3="1"/>
<feColorMatrix type="matrix" values="0 0 0 0 0.588542 0 0 0 0 0.588542 0 0 0 0 0.588542 0 0 0 0.2 0"/>
<feBlend mode="normal" in2="shape" result="effect1_innerShadow_2781_9"/>
</filter>
<linearGradient id="paint0_linear_2781_9" x1="7.80044" y1="5.11068" x2="10.9618" y2="10.9886" gradientUnits="userSpaceOnUse">
<stop stop-color="#B0B0B0"/>
<stop offset="1" stop-color="#D8D8D8" stop-opacity="0.01"/>
</linearGradient>
<linearGradient id="paint1_linear_2781_9" x1="28.067" y1="5.11068" x2="31.2284" y2="10.9886" gradientUnits="userSpaceOnUse">
<stop stop-color="#B0B0B0"/>
<stop offset="1" stop-color="#D8D8D8" stop-opacity="0.01"/>
</linearGradient>
<linearGradient id="paint2_linear_2781_9" x1="7.55591" y1="25.6707" x2="9.34701" y2="41.598" gradientUnits="userSpaceOnUse">
<stop stop-color="#3C78DD"/>
<stop offset="1" stop-color="#4688F4" stop-opacity="0.01"/>
</linearGradient>
</defs>
</svg>
