<svg width="52" height="24" viewBox="0 0 52 24" fill="none" xmlns="http://www.w3.org/2000/svg">
<path fill-rule="evenodd" clip-rule="evenodd" d="M25.8628 14.7951C26.0521 15.0257 33.1379 23.601 39.835 23.601C46.6234 23.601 50.4667 16.7658 50.4667 16.7658C53.112 12.0239 50.7664 7.38128 50.7664 7.38128C50.7664 7.38128 47.3723 0 39.835 0C32.4051 0 26.042 8.66117 25.8628 8.90715C25.6836 8.66117 19.3205 0 11.8906 0C4.35355 0 0.959092 7.38128 0.959092 7.38128C0.959092 7.38128 -1.38655 12.0239 1.25872 16.7658C1.25872 16.7658 5.10219 23.601 11.8906 23.601C18.5876 23.601 25.6734 15.0257 25.8628 14.7951ZM12.1755 4.12165C7.5328 4.12165 5.5568 7.89979 5.5568 7.89979C5.5568 7.89979 3.43307 11.2833 5.5568 15.6299C7.68107 19.9766 12.1019 19.5814 12.1019 19.5814C12.1019 19.5814 14.5071 19.927 18.3588 16.6113C19.6935 15.4623 21.202 13.8736 22.8443 11.6785C22.8443 11.6785 16.8187 4.12165 12.1755 4.12165ZM39.815 4.12165C44.4577 4.12165 46.4337 7.89979 46.4337 7.89979C46.4337 7.89979 48.5573 11.2833 46.4337 15.6299C44.3094 19.9766 39.8886 19.5814 39.8886 19.5814C39.8886 19.5814 37.4834 19.927 33.6317 16.6113C32.297 15.4623 30.7885 13.8736 29.1462 11.6785C29.1462 11.6785 35.1718 4.12165 39.815 4.12165Z" fill="url(#paint0_linear_2781_107)"/>
<defs>
<linearGradient id="paint0_linear_2781_107" x1="23" y1="24" x2="27" y2="-4.01623e-07" gradientUnits="userSpaceOnUse">
<stop stop-color="#FB923C"/>
<stop offset="0.496353" stop-color="#EF4444"/>
<stop offset="1" stop-color="#701A75"/>
</linearGradient>
</defs>
</svg>
