<svg width="42" height="42" viewBox="0 0 42 42" fill="none" xmlns="http://www.w3.org/2000/svg">
<path d="M37.3333 0H3.73333C1.67147 0 0 1.67147 0 3.73333V37.3333C0 39.3952 1.67147 41.0667 3.73333 41.0667H37.3333C39.3952 41.0667 41.0667 39.3952 41.0667 37.3333V3.73333C41.0667 1.67147 39.3952 0 37.3333 0Z" fill="#4C8BF5"/>
<mask id="mask0_2781_110" style="mask-type:alpha" maskUnits="userSpaceOnUse" x="0" y="0" width="42" height="42">
<path d="M37.3333 0H3.73333C1.67147 0 0 1.67147 0 3.73333V37.3333C0 39.3952 1.67147 41.0667 3.73333 41.0667H37.3333C39.3952 41.0667 41.0667 39.3952 41.0667 37.3333V3.73333C41.0667 1.67147 39.3952 0 37.3333 0Z" fill="white"/>
</mask>
<g mask="url(#mask0_2781_110)">
<path fill-rule="evenodd" clip-rule="evenodd" d="M9.32031 32.3329L19.9998 42.3941H41.7498L42.1332 19.7333L32.0312 9.01245L31.4495 27.4404L18.4419 32.3329H9.32031Z" fill="url(#paint0_linear_2781_110)"/>
<g filter="url(#filter0_ii_2781_110)">
<path d="M37.3333 0H3.73333C1.67147 0 0 1.67147 0 3.73333V37.3333C0 39.3952 1.67147 41.0667 3.73333 41.0667H37.3333C39.3952 41.0667 41.0667 39.3952 41.0667 37.3333V3.73333C41.0667 1.67147 39.3952 0 37.3333 0Z" fill="black" fill-opacity="0.01"/>
</g>
</g>
<mask id="mask1_2781_110" style="mask-type:alpha" maskUnits="userSpaceOnUse" x="0" y="0" width="42" height="42">
<path d="M37.3333 0H3.73333C1.67147 0 0 1.67147 0 3.73333V37.3333C0 39.3952 1.67147 41.0667 3.73333 41.0667H37.3333C39.3952 41.0667 41.0667 39.3952 41.0667 37.3333V3.73333C41.0667 1.67147 39.3952 0 37.3333 0Z" fill="white"/>
</mask>
<g mask="url(#mask1_2781_110)">
<g filter="url(#filter1_d_2781_110)">
<path fill-rule="evenodd" clip-rule="evenodd" d="M20.5333 36.8001C29.5171 36.8001 36.7999 29.5172 36.7999 20.5334C36.7999 11.5496 29.5171 4.26672 20.5333 4.26672C11.5494 4.26672 4.2666 11.5496 4.2666 20.5334C4.2666 29.5172 11.5494 36.8001 20.5333 36.8001Z" fill="#F5F5F5"/>
</g>
<path fill-rule="evenodd" clip-rule="evenodd" d="M17.8326 12.3321C15.6718 13.0549 13.8306 14.6359 12.805 16.6366C12.4472 17.3269 12.1897 18.0591 12.0322 18.8192C11.6411 20.7033 11.913 22.7134 12.8002 24.4296C13.3774 25.5489 14.2074 26.5469 15.2091 27.3258C16.1583 28.0626 17.2602 28.6129 18.4337 28.9161C19.9124 29.3031 21.4865 29.2939 22.9748 28.9627C24.3199 28.6596 25.5935 28.03 26.6095 27.1159C27.6828 26.1505 28.4508 24.882 28.8562 23.5156C29.2998 22.0278 29.3571 20.4375 29.0804 18.9078H20.7328V22.2936H25.5697C25.3836 23.3756 24.7254 24.3644 23.7952 24.9753C23.2085 25.3623 22.5359 25.6095 21.8395 25.7308C21.143 25.8474 20.418 25.8614 19.7215 25.7261C19.0108 25.5862 18.3382 25.2971 17.7468 24.8914C16.8023 24.2431 16.082 23.2964 15.7147 22.2284C15.3379 21.1418 15.3331 19.9339 15.7147 18.8519C15.9818 18.087 16.4207 17.3828 17.0026 16.8045C17.7181 16.0863 18.6483 15.5733 19.6548 15.3635C20.5134 15.1862 21.4197 15.2189 22.2593 15.4661C22.9747 15.6759 23.633 16.063 24.1721 16.5667C24.7158 16.035 25.2596 15.5033 25.8034 14.9717C26.0896 14.6872 26.3901 14.4121 26.6668 14.1183C25.8415 13.3721 24.8685 12.7704 23.8095 12.388C21.9015 11.6978 19.7549 11.6838 17.8326 12.3321Z" fill="#4C8BF5"/>
<path fill-rule="evenodd" clip-rule="evenodd" d="M36.8 6.39997C37.9782 6.39997 38.9333 5.44482 38.9333 4.26663C38.9333 3.08845 37.9782 2.1333 36.8 2.1333C35.6218 2.1333 34.6666 3.08845 34.6666 4.26663C34.6666 5.44482 35.6218 6.39997 36.8 6.39997ZM4.26663 6.39997C5.44482 6.39997 6.39997 5.44482 6.39997 4.26663C6.39997 3.08845 5.44482 2.1333 4.26663 2.1333C3.08845 2.1333 2.1333 3.08845 2.1333 4.26663C2.1333 5.44482 3.08845 6.39997 4.26663 6.39997ZM36.8 38.9333C37.9782 38.9333 38.9333 37.9782 38.9333 36.8C38.9333 35.6218 37.9782 34.6666 36.8 34.6666C35.6218 34.6666 34.6666 35.6218 34.6666 36.8C34.6666 37.9782 35.6218 38.9333 36.8 38.9333ZM4.26663 38.9333C5.44482 38.9333 6.39997 37.9782 6.39997 36.8C6.39997 35.6218 5.44482 34.6666 4.26663 34.6666C3.08845 34.6666 2.1333 35.6218 2.1333 36.8C2.1333 37.9782 3.08845 38.9333 4.26663 38.9333Z" fill="#A4C4FA"/>
</g>
<defs>
<filter id="filter0_ii_2781_110" x="0" y="-1" width="41.0667" height="43.0667" filterUnits="userSpaceOnUse" color-interpolation-filters="sRGB">
<feFlood flood-opacity="0" result="BackgroundImageFix"/>
<feBlend mode="normal" in="SourceGraphic" in2="BackgroundImageFix" result="shape"/>
<feColorMatrix in="SourceAlpha" type="matrix" values="0 0 0 0 0 0 0 0 0 0 0 0 0 0 0 0 0 0 127 0" result="hardAlpha"/>
<feOffset dy="1"/>
<feGaussianBlur stdDeviation="2"/>
<feComposite in2="hardAlpha" operator="arithmetic" k2="-1" k3="1"/>
<feColorMatrix type="matrix" values="0 0 0 0 0.639216 0 0 0 0 0.768627 0 0 0 0 0.976471 0 0 0 0.5 0"/>
<feBlend mode="normal" in2="shape" result="effect1_innerShadow_2781_110"/>
<feColorMatrix in="SourceAlpha" type="matrix" values="0 0 0 0 0 0 0 0 0 0 0 0 0 0 0 0 0 0 127 0" result="hardAlpha"/>
<feOffset dy="-1"/>
<feGaussianBlur stdDeviation="2"/>
<feComposite in2="hardAlpha" operator="arithmetic" k2="-1" k3="1"/>
<feColorMatrix type="matrix" values="0 0 0 0 0.639216 0 0 0 0 0.768627 0 0 0 0 0.976471 0 0 0 0.5 0"/>
<feBlend mode="normal" in2="effect1_innerShadow_2781_110" result="effect2_innerShadow_2781_110"/>
</filter>
<filter id="filter1_d_2781_110" x="2.2666" y="2.26672" width="40.5334" height="40.5333" filterUnits="userSpaceOnUse" color-interpolation-filters="sRGB">
<feFlood flood-opacity="0" result="BackgroundImageFix"/>
<feColorMatrix in="SourceAlpha" type="matrix" values="0 0 0 0 0 0 0 0 0 0 0 0 0 0 0 0 0 0 127 0" result="hardAlpha"/>
<feOffset dx="2" dy="2"/>
<feGaussianBlur stdDeviation="2"/>
<feColorMatrix type="matrix" values="0 0 0 0 0 0 0 0 0 0 0 0 0 0 0 0 0 0 0.1 0"/>
<feBlend mode="normal" in2="BackgroundImageFix" result="effect1_dropShadow_2781_110"/>
<feBlend mode="normal" in="SourceGraphic" in2="effect1_dropShadow_2781_110" result="shape"/>
</filter>
<linearGradient id="paint0_linear_2781_110" x1="10.9332" y1="33.7975" x2="33.7631" y2="56.9248" gradientUnits="userSpaceOnUse">
<stop stop-color="#3C70C8"/>
<stop offset="1" stop-color="#4889F4" stop-opacity="0.01"/>
</linearGradient>
</defs>
</svg>
