<svg width="32" height="32" viewBox="0 0 32 32" fill="none" xmlns="http://www.w3.org/2000/svg">
<path d="M4.9675 6.06714L0 11.0346L4.9675 16.0021L9.935 11.0346L4.9675 6.06714Z" fill="#64748B"/>
<path d="M9.94343 11.0326L4.97405 6.06323C6.29095 7.38061 7.03076 9.1671 7.03076 11.0298C7.03076 12.8926 6.29095 14.6791 4.97405 15.9964L0.00463867 20.9603L4.97405 25.9296L9.94343 20.9603L14.9128 15.9964L9.94343 11.0326Z" fill="#CBD5E1"/>
<path d="M27.0273 25.9404L31.9947 20.9729L27.0273 16.0054L22.0598 20.9729L27.0273 25.9404Z" fill="#64748B"/>
<path d="M22.0605 20.9714L27.0299 25.9352C25.7129 24.6178 24.9732 22.8314 24.9732 20.9686C24.9732 19.1059 25.7129 17.3194 27.0299 16.002L31.9993 11.0326L27.0299 6.06323L22.0605 11.0326L17.0967 16.002L22.0605 20.9714Z" fill="#CBD5E1"/>
<path d="M6.06665 27.0325L11.0342 32L16.0017 27.0325L11.0342 22.0649L6.06665 27.0325Z" fill="#64748B"/>
<path d="M11.0346 22.0576L6.06519 27.027C7.38256 25.7101 9.16901 24.9703 11.0318 24.9703C12.8945 24.9703 14.681 25.7101 15.9984 27.027L20.9622 31.9964L25.9316 27.027L20.9622 22.0576L15.9984 17.0938L11.0346 22.0576Z" fill="#CBD5E1"/>
<path d="M25.9407 4.96754L20.9731 0L16.0056 4.9675L20.9731 9.93504L25.9407 4.96754Z" fill="#64748B"/>
<path d="M20.9733 9.9405L25.9372 4.97112C24.6198 6.28802 22.8333 7.02783 20.9706 7.02783C19.1078 7.02783 17.3214 6.28802 16.0039 4.97112L11.0346 0.00170898L6.06519 4.97112L11.0346 9.9405L16.0039 14.9099L20.9733 9.9405Z" fill="#CBD5E1"/>
</svg>
