<svg width="34" height="32" viewBox="0 0 34 32" fill="none" xmlns="http://www.w3.org/2000/svg">
<path d="M10.3896 12.9923L5.19826 9.97412L0 12.9923V19.0148L5.19826 22.0261L10.3896 19.0148V12.9923ZM9.27178 18.3671L5.19826 20.7237L1.1247 18.3671V13.64L5.19826 11.2765L9.27178 13.64V18.3671Z" fill="#64748B"/>
<path d="M21.61 12.9854L16.6197 9.97412L11.636 12.9854V19.0079L16.6197 22.0261L21.61 19.0079V12.9854Z" fill="#64748B"/>
<path d="M28.0493 9.97412L22.8579 12.9923V19.0148L28.0493 22.0261L33.2475 19.0148V12.9923L28.0493 9.97412ZM32.123 18.3671L28.0493 20.7237L23.9757 18.3671V13.64L28.0493 11.2765L32.123 13.64V18.3671Z" fill="#64748B"/>
<path d="M5.81909 22.9661V28.9887L11.0242 32L16.2087 28.9887V22.9661L11.0242 19.948L5.81909 22.9661ZM15.0718 28.3616L11.0242 30.6976L6.91491 28.3616V23.6139L11.0242 21.2504L15.0855 23.6139L15.0718 28.3616Z" fill="#64748B"/>
<path d="M17.0388 22.9661V28.9887L22.2302 32L27.4284 28.9887V22.9661L22.2302 19.948L17.0388 22.9661ZM26.3037 28.3616L22.2302 30.7183L18.1635 28.3616V23.6139L22.2302 21.2504L26.3037 23.6139V28.3616Z" fill="#64748B"/>
<path d="M16.2087 9.04067V2.99749L11.0311 0L5.81909 2.99749V9.02002L11.0311 12.052L16.2087 9.04067ZM6.91636 3.68657L11.0311 1.30236L15.0841 3.68657V8.41364L11.0311 10.7496L6.91636 8.39294V3.68657Z" fill="#64748B"/>
<path d="M27.4284 9.06137V3.01814L22.2302 0L17.0388 3.01814V9.04067L22.2302 12.052L27.4284 9.06137ZM18.1635 3.70722L22.2302 1.34371L26.3037 3.70722V8.43429L22.2302 10.7909L18.1635 8.43429V3.70722Z" fill="#64748B"/>
</svg>
