<svg width="29" height="32" viewBox="0 0 29 32" fill="none" xmlns="http://www.w3.org/2000/svg">
<path d="M14.4235 21.7862C13.5462 21.7901 12.6805 21.5776 11.8974 21.1661C11.1143 20.7545 10.4361 20.1558 9.9185 19.4189L6.31079 21.5745C6.44808 21.7391 6.6106 21.8789 6.79183 21.9883L13.2117 25.8376C13.5869 26.037 14.0021 26.1409 14.4235 26.1409C14.8448 26.1409 15.2601 26.037 15.6353 25.8376L22.0551 21.9883C22.2363 21.8789 22.3989 21.7391 22.5361 21.5745L18.9377 19.3804C18.4232 20.1257 17.7453 20.7327 16.9602 21.1511C16.1752 21.5695 15.3055 21.7872 14.4235 21.7862Z" fill="#64748B"/>
<path d="M8.77399 15.977C8.77728 14.6084 9.3092 13.289 10.2681 12.2709C11.2269 11.2528 12.5456 10.6074 13.9718 10.4581V6.30981C13.7554 6.35272 13.5473 6.42718 13.3546 6.53057L6.66208 10.2098C6.29832 10.4419 5.99585 10.7512 5.77839 11.1135C5.56088 11.4757 5.43427 11.881 5.40845 12.2977V19.6562C5.41142 19.8685 5.44712 20.0793 5.5145 20.2816L9.27549 18.2121C8.94661 17.5086 8.77579 16.7472 8.77399 15.977Z" fill="#64748B"/>
<path d="M22.2497 10.2072L15.9094 6.53043C15.727 6.42709 15.5297 6.35268 15.3247 6.30981V10.4462C16.186 10.5444 17.0125 10.8447 17.7374 11.323C18.4623 11.8012 19.0655 12.444 19.4983 13.1997C19.9312 13.9553 20.1816 14.8027 20.2295 15.6736C20.2773 16.5444 20.1213 17.4144 19.7739 18.2135L23.3369 20.2816C23.4007 20.0794 23.4346 19.8688 23.4374 19.6566V12.303C23.4143 11.885 23.295 11.4781 23.0889 11.1144C22.8827 10.7506 22.5955 10.4401 22.2497 10.2072Z" fill="#64748B"/>
<path d="M26.8672 6.52219L16.4004 0.468867C15.7866 0.16054 15.1093 0 14.4225 0C13.7358 0 13.0585 0.16054 12.4447 0.468867L1.97787 6.52219C1.40336 6.89699 0.925026 7.40182 0.581409 7.9959C0.237837 8.58997 0.0386704 9.25661 0 9.94195V22.0485C0.0379493 22.7354 0.236756 23.4036 0.580327 23.9993C0.923899 24.5951 1.40264 25.1015 1.97787 25.4778L12.4447 31.5313C13.0585 31.8395 13.7358 32 14.4225 32C15.1093 32 15.7866 31.8395 16.4004 31.5313L26.8672 25.4778C27.4424 25.1015 27.9212 24.5951 28.2647 23.9993C28.6083 23.4036 28.8071 22.7354 28.8451 22.0485V9.94195C28.8064 9.25661 28.6072 8.58997 28.2637 7.9959C27.92 7.40182 27.4417 6.89699 26.8672 6.52219ZM25.5233 20.656C25.4926 21.1836 25.3388 21.6967 25.0742 22.154C24.8096 22.6114 24.4416 23.0002 23.9997 23.2896L15.9367 27.9503C15.4657 28.1884 14.9454 28.3125 14.4178 28.3125C13.8902 28.3125 13.3699 28.1884 12.8989 27.9503L4.84539 23.2896C4.40347 23.0002 4.03547 22.6114 3.77091 22.154C3.5063 21.6967 3.35247 21.1836 3.32173 20.656V11.344C3.35247 10.8164 3.5063 10.3033 3.77091 9.84599C4.03547 9.38862 4.40347 8.99971 4.84539 8.71045L12.8894 4.04971C13.3604 3.8116 13.8807 3.68753 14.4083 3.68753C14.936 3.68753 15.4563 3.8116 15.9273 4.04971L23.9902 8.71045C24.4338 8.99867 24.8037 9.38713 25.07 9.84455C25.3363 10.3019 25.4916 10.8155 25.5233 11.344V20.656Z" fill="#64748B"/>
<path d="M10.3674 15.9999C10.3674 16.7576 10.6053 17.4983 11.051 18.1283C11.4967 18.7583 12.1303 19.2493 12.8715 19.5393C13.6127 19.8292 14.4283 19.9051 15.2152 19.7573C16.002 19.6095 16.7247 19.2446 17.292 18.7088C17.8593 18.1731 18.2457 17.4905 18.4022 16.7473C18.5587 16.0042 18.4784 15.2339 18.1713 14.5339C17.8643 13.8338 17.3445 13.2355 16.6774 12.8146C16.0103 12.3936 15.226 12.1689 14.4238 12.1689C13.348 12.1689 12.3162 12.5726 11.5555 13.291C10.7948 14.0095 10.3674 14.9839 10.3674 15.9999Z" fill="#64748B"/>
</svg>
