<svg width="26" height="32" viewBox="0 0 26 32" fill="none" xmlns="http://www.w3.org/2000/svg">
<path d="M15.7631 9.03772C16.7145 9.0386 17.6551 9.24519 18.5234 9.64393C19.3917 10.0427 20.1683 10.6247 20.8026 11.352L22.7883 9.51603C21.5173 8.06638 19.8497 7.0433 18.0032 6.58037C16.1568 6.11739 14.2172 6.23603 12.4374 6.92078C10.6576 7.60553 9.12043 8.82459 8.02642 10.4189C6.93236 12.0132 6.33231 13.9087 6.30448 15.858C6.27665 17.8074 6.82239 19.7201 7.87044 21.3465C8.91854 22.973 10.4203 24.2377 12.1797 24.9756C13.9391 25.7134 15.8746 25.8902 17.7335 25.4829C19.5924 25.0756 21.2884 24.103 22.6003 22.6922L20.6597 20.8021C19.8866 21.6313 18.9253 22.251 17.8617 22.606C16.7981 22.9609 15.6652 23.04 14.5645 22.8362C13.4638 22.6324 12.4295 22.1521 11.554 21.4381C10.6785 20.7241 9.98918 19.7988 9.54763 18.7448C9.10603 17.6908 8.92596 16.5409 9.02351 15.3982C9.12111 14.2553 9.49323 13.1551 10.1067 12.1959C10.7201 11.2366 11.5558 10.4482 12.5389 9.90114C13.5221 9.35404 14.6221 9.06536 15.7406 9.06085L15.7631 9.03772Z" fill="#64748B"/>
<path d="M6.78787 6.74381L4.8288 4.84839C3.29837 6.3103 2.08397 8.048 1.25527 9.96174C0.426618 11.8754 0 13.9275 0 15.9999C0 18.0723 0.426618 20.1244 1.25527 22.038C2.08397 23.9518 3.29837 25.6895 4.8288 27.1514L6.78787 25.256C5.5119 24.0457 4.49886 22.6043 3.80741 21.0154C3.11602 19.4266 2.76 17.7218 2.76 15.9999C2.76 14.278 3.11602 12.5732 3.80741 10.9844C4.49886 9.39549 5.5119 7.95413 6.78787 6.74381Z" fill="#64748B"/>
<path d="M25.2124 3.13955C22.5412 1.09587 19.3135 -0.00415788 16.0002 1.18104e-05V2.75196C18.7341 2.74934 21.3979 3.65339 23.6064 5.33334L25.2124 3.13955Z" fill="#64748B"/>
<path d="M16.0002 29.2852V32.0001C19.0995 32.0036 22.1325 31.1 24.7275 29.3999L23.2031 27.1516C21.0587 28.5475 18.5565 29.2887 16.0002 29.2852Z" fill="#64748B"/>
<path d="M15.9999 25.9322C13.9004 25.9308 11.852 25.3029 10.132 24.1335C8.41204 22.9641 7.10353 21.3096 6.38353 19.394L3.87866 20.5239C4.82193 22.9027 6.48496 24.9483 8.64869 26.391C10.8124 27.8337 13.3753 28.606 15.9999 28.6062V25.9322Z" fill="#64748B"/>
<path d="M6.06846 15.5152C6.23108 12.9647 7.34788 10.5722 9.19219 8.82308C11.0365 7.07404 13.4702 6.0994 15.9996 6.09693V3.39404C12.7605 3.39395 9.64533 4.65222 7.29881 6.90846C4.95229 9.16475 3.55404 12.2463 3.39355 15.5152H6.06846Z" fill="#64748B"/>
</svg>
