<svg width="28" height="32" viewBox="0 0 28 32" fill="none" xmlns="http://www.w3.org/2000/svg">
<path d="M13.9216 3.11148L19.2391 6.18212L21.9352 4.62978L13.9216 0L0.536133 7.73445L3.21868 9.28679L13.9216 3.11148Z" fill="#64748B"/>
<path d="M24.6199 6.18213L13.9238 12.3574L8.60635 9.2868L5.91699 10.8391L13.9238 15.4621L27.3161 7.73447L24.6199 6.18213Z" fill="#64748B"/>
<path d="M2.68936 16.5719L0 15.0195V24.2655L13.3855 31.9999V28.8952L2.68936 22.7131V16.5719Z" fill="#64748B"/>
<path d="M0 11.9147L10.6961 18.09V24.2313L13.3855 25.7904V16.5377L0 8.81006V11.9147Z" fill="#64748B"/>
<path d="M22.4758 15.0195V11.9148L14.4622 16.5378V31.9999L17.1515 30.4475V18.0901L22.4758 15.0195Z" fill="#64748B"/>
<path d="M25.1578 10.3624V22.713L19.8403 25.7904V28.8951L27.8539 24.2653V8.81006L25.1578 10.3624Z" fill="#64748B"/>
</svg>
