<svg width="64" height="64" viewBox="0 0 64 64" fill="none" xmlns="http://www.w3.org/2000/svg">
<path d="M15.2151 4.00002C15.1321 3.99926 15.0503 4.01914 14.9769 4.05789C14.9036 4.09663 14.841 4.15302 14.7949 4.22196C14.7488 4.2909 14.7205 4.37024 14.7127 4.45282C14.7049 4.53541 14.7177 4.61864 14.7501 4.69502L15.0376 5.37377L20.1251 17.2363C20.1596 17.317 20.2148 17.3871 20.2851 17.4397C20.3554 17.4923 20.4383 17.5254 20.5255 17.5358C20.6126 17.5462 20.701 17.5335 20.7817 17.4989C20.8623 17.4643 20.9325 17.4091 20.9851 17.3388L30.375 4.80002C30.4308 4.72574 30.4647 4.6374 30.473 4.54492C30.4814 4.45244 30.4638 4.35947 30.4223 4.27641C30.3807 4.19336 30.3169 4.12351 30.2379 4.0747C30.1589 4.02588 30.0679 4.00002 29.975 4.00002H15.2151Z" fill="#FACC15"/>
<path d="M52.4911 7.25747L47.3311 19.3037C47.2987 19.3798 47.2856 19.4627 47.2931 19.545C47.3005 19.6274 47.3283 19.7066 47.3738 19.7756C47.4194 19.8446 47.4814 19.9012 47.5542 19.9403C47.6271 19.9795 47.7085 20 47.7911 20H60.4161C60.5053 20 60.5928 19.9762 60.6697 19.9311C60.7465 19.8859 60.8099 19.821 60.8533 19.7431C60.8966 19.6652 60.9184 19.5771 60.9162 19.488C60.9141 19.3989 60.8882 19.312 60.8411 19.2362L53.3749 7.19122C53.3267 7.11367 53.2581 7.05082 53.1767 7.00948C53.0952 6.96814 53.004 6.94989 52.913 6.95672C52.8219 6.96355 52.7344 6.99519 52.6601 7.04821C52.5857 7.10123 52.5273 7.1736 52.4911 7.25747Z" fill="#FACC15"/>
<path d="M10.6249 7.19622L3.16116 19.2362C3.11414 19.312 3.08821 19.3989 3.08608 19.488C3.08395 19.5771 3.10568 19.6652 3.14903 19.7431C3.19238 19.821 3.25576 19.8859 3.33262 19.931C3.40948 19.9762 3.49701 20 3.58616 20H16.2112C16.2939 19.9999 16.3753 19.9792 16.4481 19.9399C16.5209 19.9006 16.5828 19.8439 16.6283 19.7747C16.6738 19.7056 16.7014 19.6263 16.7086 19.5438C16.7159 19.4614 16.7026 19.3785 16.6699 19.3025L11.4999 7.26247C11.4629 7.18068 11.4046 7.11036 11.3311 7.05888C11.2576 7.00739 11.1716 6.97665 11.0821 6.96987C10.9926 6.9631 10.9029 6.98054 10.8224 7.02036C10.742 7.06019 10.6738 7.12093 10.6249 7.19622Z" fill="#FACC15"/>
<path d="M49.1587 4.00001H33.4775C33.4322 3.99971 33.3878 4.01209 33.3492 4.03572C33.3106 4.05936 33.2794 4.09333 33.2591 4.13377C33.2389 4.17422 33.2303 4.21953 33.2344 4.26459C33.2385 4.30965 33.2552 4.35266 33.2825 4.38876L43.2725 17.6963C43.298 17.7304 43.332 17.7573 43.3712 17.7741C43.4104 17.7909 43.4533 17.7971 43.4957 17.792C43.538 17.787 43.5783 17.7708 43.6124 17.7452C43.6465 17.7196 43.6733 17.6855 43.69 17.6463L48.95 5.37501L49.375 4.33251C49.3899 4.29672 49.396 4.25784 49.3927 4.21919C49.3893 4.18055 49.3767 4.14328 49.3558 4.1106C49.3349 4.07791 49.3064 4.05078 49.2727 4.03151C49.2391 4.01225 49.2012 4.00144 49.1625 4.00001H49.1587Z" fill="#FACC15"/>
<path d="M29.8749 56L18.6962 24.3138C18.6634 24.2217 18.6028 24.1422 18.5229 24.086C18.443 24.0298 18.3476 23.9998 18.2499 24H3.21242C3.12531 23.9998 3.03988 24.024 2.96587 24.0699C2.89186 24.1159 2.83224 24.1817 2.7938 24.2598C2.75537 24.338 2.73967 24.4254 2.74848 24.5121C2.7573 24.5987 2.79028 24.6812 2.84367 24.75L29.8437 59.7263C29.9351 59.8446 30.0655 59.9268 30.2117 59.9581C30.3579 59.9895 30.5105 59.968 30.6424 59.8975C30.7751 59.8277 30.8782 59.7126 30.9331 59.573C30.9879 59.4335 30.9908 59.279 30.9412 59.1375L29.8749 56Z" fill="#FACC15"/>
<path d="M60.7875 24H45.75C45.6529 24 45.5581 24.0302 45.4788 24.0864C45.3995 24.1426 45.3397 24.222 45.3075 24.3138L33.0325 59.0837C32.981 59.2297 32.9831 59.3893 33.0385 59.5338C33.094 59.6784 33.1991 59.7984 33.335 59.8725C33.471 59.9461 33.6287 59.9691 33.78 59.9373C33.9314 59.9055 34.0665 59.8209 34.1613 59.6987L61.1563 24.75C61.2097 24.6812 61.2427 24.5987 61.2515 24.5121C61.2603 24.4254 61.2446 24.338 61.2062 24.2598C61.1677 24.1817 61.1081 24.1159 61.0341 24.0699C60.9601 24.024 60.8746 23.9998 60.7875 24Z" fill="#FACC15"/>
<path d="M32.3999 9.86626L39.3999 19.2C39.4556 19.2743 39.4895 19.3626 39.4979 19.4551C39.5062 19.5476 39.4886 19.6406 39.4471 19.7236C39.4056 19.8067 39.3417 19.8765 39.2628 19.9253C39.1838 19.9742 39.0927 20 38.9999 20H24.9999C24.907 20 24.816 19.9742 24.737 19.9253C24.658 19.8765 24.5942 19.8067 24.5527 19.7236C24.5111 19.6406 24.4936 19.5476 24.5019 19.4551C24.5102 19.3626 24.5442 19.2743 24.5999 19.2L31.5999 9.86626C31.6465 9.80416 31.7069 9.75376 31.7763 9.71905C31.8457 9.68433 31.9223 9.66626 31.9999 9.66626C32.0775 9.66626 32.1541 9.68433 32.2235 9.71905C32.2929 9.75376 32.3533 9.80416 32.3999 9.86626ZM31.5249 48.655L23.0624 24.6663C23.0358 24.5909 23.0277 24.5102 23.0387 24.4311C23.0497 24.3519 23.0796 24.2765 23.1257 24.2113C23.1719 24.146 23.233 24.0928 23.304 24.056C23.375 24.0193 23.4537 24.0001 23.5336 24H40.4661C40.5461 24.0001 40.6248 24.0193 40.6958 24.056C40.7668 24.0928 40.8279 24.146 40.874 24.2113C40.9202 24.2765 40.95 24.3519 40.9611 24.4311C40.9721 24.5102 40.964 24.5909 40.9374 24.6663L32.4711 48.655C32.4366 48.7524 32.3728 48.8367 32.2884 48.8963C32.204 48.9559 32.1032 48.9879 31.9999 48.9879C31.8966 48.9879 31.7958 48.9559 31.7114 48.8963C31.627 48.8367 31.5632 48.7524 31.5286 48.655H31.5249Z" fill="#FB923C"/>
</svg>
