<svg width="64" height="64" viewBox="0 0 64 64" fill="none" xmlns="http://www.w3.org/2000/svg">
<path d="M32 6C17.6637 6 6 17.6637 6 32C6 46.3363 17.6637 58 32 58C46.3363 58 58 46.3363 58 32C58 17.6637 46.3363 6 32 6ZM41.3363 37.6025C40.2738 38.8975 36.375 42.4125 32 45.5413C27.625 42.4163 23.7262 38.8975 22.6637 37.6025C20.1637 34.5563 18.9662 31.4275 19.0012 28.04C19.04 24.1575 22.1537 20.9988 25.9425 20.9988C28.6925 20.9988 30.605 22.55 31.7163 23.8438L32 24.1875L32.2837 23.8438C33.375 22.5363 35.3025 21 38.0575 21C41.8463 21 44.96 24.1588 44.9987 28.0413C45.0337 31.4275 43.835 34.5563 41.3363 37.6025Z" fill="#FACC15"/>
<path d="M25.9429 19.4988C28.6456 19.4989 30.6553 20.7294 31.9927 21.9714C33.3339 20.7145 35.3565 19.4999 38.0571 19.4998C42.7024 19.4998 46.4518 23.3556 46.4985 28.0261V28.3806C46.452 32.0367 45.0953 35.3841 42.4956 38.5535V38.5544C41.3068 40.0032 37.281 43.6088 32.8726 46.7615L32.0005 47.3845L31.1284 46.7615C26.7188 43.6117 22.6931 40.003 21.5044 38.5544C18.8191 35.2824 17.4622 31.8199 17.5015 28.0242C17.5485 23.3539 21.2978 19.4988 25.9429 19.4988Z" fill="#FB923C" stroke="#0F172A" stroke-width="3"/>
</svg>
