<svg width="64" height="64" viewBox="0 0 64 64" fill="none" xmlns="http://www.w3.org/2000/svg">
<path d="M32 46C31.6519 46 31.3097 45.909 31.0075 45.7362L13.5 35.73C13.3479 35.6422 13.1753 35.5959 12.9996 35.596C12.824 35.5961 12.6514 35.6424 12.4994 35.7304C12.3473 35.8183 12.2211 35.9447 12.1334 36.097C12.0458 36.2492 11.9997 36.4218 12 36.5975V46C11.9997 46.3569 12.0949 46.7075 12.2758 47.0152C12.4567 47.3229 12.7167 47.5766 13.0288 47.75L31.0288 57.75C31.3259 57.915 31.6601 58.0017 32 58.0017C32.3399 58.0017 32.6741 57.915 32.9713 57.75L50.9712 47.75C51.2833 47.5766 51.5433 47.3229 51.7242 47.0152C51.9051 46.7075 52.0003 46.3569 52 46V36.5975C52.0003 36.4218 51.9542 36.2492 51.8666 36.097C51.7789 35.9447 51.6527 35.8183 51.5006 35.7304C51.3486 35.6424 51.176 35.5961 51.0004 35.596C50.8247 35.5959 50.6521 35.6422 50.5 35.73L32.9925 45.7362C32.6903 45.909 32.3482 46 32 46Z" fill="#FACC15"/>
<path d="M61.9901 23.8125C61.9901 23.8125 61.9901 23.8025 61.9901 23.7988C61.9578 23.4817 61.8501 23.177 61.6762 22.91C61.5023 22.643 61.267 22.4214 60.9901 22.2638L32.9901 6.26376C32.6879 6.091 32.3458 6.00012 31.9976 6.00012C31.6495 6.00012 31.3074 6.091 31.0051 6.26376L3.00511 22.2638C2.6991 22.4387 2.44476 22.6915 2.26786 22.9964C2.09097 23.3013 1.9978 23.6475 1.9978 24C1.9978 24.3525 2.09097 24.6988 2.26786 25.0037C2.44476 25.3086 2.6991 25.5613 3.00511 25.7363L31.0051 41.7363C31.3074 41.909 31.6495 41.9999 31.9976 41.9999C32.3458 41.9999 32.6879 41.909 32.9901 41.7363L57.6251 27.66C57.6632 27.638 57.7064 27.6265 57.7504 27.6265C57.7943 27.6266 57.8375 27.6382 57.8755 27.6603C57.9136 27.6823 57.9451 27.714 57.967 27.7522C57.9889 27.7903 58.0003 27.8335 58.0001 27.8775V45.9438C58.0001 47.02 58.8276 47.9438 59.9039 47.9975C60.1743 48.0105 60.4445 47.9685 60.6982 47.874C60.9519 47.7795 61.1838 47.6345 61.3798 47.4477C61.5758 47.261 61.7318 47.0364 61.8385 46.7875C61.9451 46.5387 62.0001 46.2707 62.0001 46V24C62 23.9374 61.9966 23.8748 61.9901 23.8125Z" fill="#FB923C"/>
</svg>
