<svg width="1094" height="79" viewBox="0 0 1094 79" fill="none" xmlns="http://www.w3.org/2000/svg">
<path d="M0.5 78C0.5 -34 547.5 49 547.5 0" stroke="#CBD5E1" stroke-dasharray="6 6"/>
<path d="M273.5 78C273.5 14 547.5 49 547.5 0" stroke="#CBD5E1" stroke-dasharray="6 6"/>
<path d="M409.5 78C409.5 17 547.5 49 547.5 0" stroke="#CBD5E1" stroke-dasharray="6 6"/>
<path d="M1093.5 78C1093.5 -34 546.5 49 546.5 0" stroke="#CBD5E1" stroke-dasharray="6 6"/>
<path d="M958.5 78C961.5 -4 546.5 49 546.5 0" stroke="#CBD5E1" stroke-dasharray="6 6"/>
<path d="M820.5 78C820.5 14 546.5 49 546.5 0" stroke="#CBD5E1" stroke-dasharray="6 6"/>
<path d="M547.5 3L547.5 78" stroke="#CBD5E1" stroke-dasharray="6 6"/>
<path d="M684.5 78C684.5 17 546.5 49 546.5 0" stroke="#CBD5E1" stroke-dasharray="6 6"/>
<path d="M135.5 78C132.5 -4 547.5 49 547.5 0" stroke="#FB923C" stroke-dasharray="6 6"/>
</svg>
