<svg width="562" height="653" viewBox="0 0 562 653" fill="none" xmlns="http://www.w3.org/2000/svg">
<path fill-rule="evenodd" clip-rule="evenodd" d="M179.313 479.199C233.322 437.981 125.715 399.785 168.43 355.452C288.143 231.205 124.899 224.153 195.638 156.134C306.094 49.9271 561.284 325.753 561.284 374.602C561.284 420.229 544.053 448.364 495.079 479.199C446.106 510.034 411.884 532.056 389.377 568.921C367.205 605.239 330.767 652.216 239.17 652.216C206.503 652.216 75.0184 637.705 62.3224 594.174C52.2375 559.595 144.85 505.5 179.313 479.199Z" fill="#FACC15"/>
<path d="M128.024 149.278L131.625 147.385L130.938 151.395L133.852 154.235L129.826 154.82L128.024 158.469L126.224 154.82L122.197 154.235L125.111 151.395L124.423 147.385L128.024 149.278Z" fill="#FB923C"/>
<g clip-path="url(#clip0_1762_4992)">
<path d="M133.525 384.576L136.354 383.088L135.813 386.239L138.103 388.47L134.94 388.93L133.525 391.797L132.11 388.93L128.946 388.47L131.236 386.239L130.695 383.088L133.525 384.576Z" fill="#FB923C"/>
</g>
<g clip-path="url(#clip1_1762_4992)">
<path d="M104.49 206.564C106.101 206.564 107.407 207.87 107.407 209.481C107.407 211.092 106.101 212.398 104.49 212.398C102.88 212.398 101.574 211.092 101.574 209.481C101.574 207.87 102.88 206.564 104.49 206.564Z" fill="#FB923C"/>
</g>
<g clip-path="url(#clip2_1762_4992)">
<path d="M105.973 93.6446C107.814 93.6446 109.306 95.1369 109.306 96.9779C109.306 98.8189 107.814 100.311 105.973 100.311C104.132 100.311 102.639 98.8189 102.639 96.9779C102.639 95.1369 104.132 93.6446 105.973 93.6446Z" fill="#FB923C"/>
</g>
<g clip-path="url(#clip3_1762_4992)">
<path d="M41.0246 73.8056C43.3258 73.8056 45.1912 75.671 45.1912 77.9722C45.1912 80.2735 43.3258 82.1389 41.0246 82.1389C38.7233 82.1389 36.8579 80.2735 36.8579 77.9722C36.8579 75.671 38.7233 73.8056 41.0246 73.8056Z" fill="#FB923C"/>
</g>
<g clip-path="url(#clip4_1762_4992)">
<path d="M73.9767 167.806C76.278 167.806 78.1434 169.671 78.1434 171.972C78.1434 174.274 76.278 176.139 73.9767 176.139C71.6755 176.139 69.81 174.274 69.81 171.972C69.81 169.671 71.6755 167.806 73.9767 167.806Z" fill="#FB923C"/>
</g>
<g clip-path="url(#clip5_1762_4992)">
<path d="M123.524 514.886C126.056 514.886 128.108 516.938 128.108 519.47C128.108 522.001 126.056 524.053 123.524 524.053C120.993 524.053 118.941 522.001 118.941 519.47C118.941 516.938 120.993 514.886 123.524 514.886Z" fill="#FB923C"/>
</g>
<g clip-path="url(#clip6_1762_4992)">
<path d="M123.025 289.322C123.945 289.322 124.691 290.068 124.691 290.989C124.691 291.909 123.945 292.655 123.025 292.655C122.104 292.655 121.358 291.909 121.358 290.989C121.358 290.068 122.104 289.322 123.025 289.322Z" fill="#FB923C"/>
</g>
<g clip-path="url(#clip7_1762_4992)">
<path d="M3.50014 252.564C5.11102 252.564 6.41681 253.87 6.41681 255.481C6.41681 257.092 5.11102 258.398 3.50014 258.398C1.88927 258.398 0.583476 257.092 0.583476 255.481C0.583476 253.87 1.88927 252.564 3.50014 252.564Z" fill="#FB923C"/>
</g>
<g clip-path="url(#clip8_1762_4992)">
<path d="M8.97858 485.483C10.3593 485.483 11.4786 486.603 11.4786 487.983C11.4786 489.364 10.3593 490.483 8.97858 490.483C7.59783 490.483 6.47858 489.364 6.47858 487.983C6.47858 486.603 7.59783 485.483 8.97858 485.483Z" fill="#FB923C"/>
</g>
<path d="M88.6495 419.874V422.999C88.6495 423.165 88.7153 423.324 88.8325 423.441C88.9497 423.559 89.1087 423.624 89.2745 423.624C89.4402 423.624 89.5992 423.559 89.7164 423.441C89.8336 423.324 89.8995 423.165 89.8995 422.999V419.874H93.0245C93.1902 419.874 93.3492 419.809 93.4664 419.691C93.5836 419.574 93.6495 419.415 93.6495 419.249C93.6495 419.084 93.5836 418.925 93.4664 418.807C93.3492 418.69 93.1902 418.624 93.0245 418.624H89.8995V415.499C89.8995 415.334 89.8336 415.175 89.7164 415.057C89.5992 414.94 89.4402 414.874 89.2745 414.874C89.1087 414.874 88.9497 414.94 88.8325 415.057C88.7153 415.175 88.6495 415.334 88.6495 415.499V418.624H85.5245C85.3587 418.624 85.1997 418.69 85.0825 418.807C84.9653 418.925 84.8995 419.084 84.8995 419.249C84.8995 419.415 84.9653 419.574 85.0825 419.691C85.1997 419.809 85.3587 419.874 85.5245 419.874H88.6495Z" fill="#FB923C"/>
<path d="M105.558 348.199V349.866C105.558 349.954 105.593 350.039 105.655 350.102C105.718 350.164 105.803 350.199 105.891 350.199C105.979 350.199 106.064 350.164 106.127 350.102C106.189 350.039 106.224 349.954 106.224 349.866V348.199H107.891C107.979 348.199 108.064 348.164 108.127 348.102C108.189 348.039 108.224 347.954 108.224 347.866C108.224 347.778 108.189 347.693 108.127 347.63C108.064 347.568 107.979 347.533 107.891 347.533H106.224V345.866C106.224 345.778 106.189 345.693 106.127 345.63C106.064 345.568 105.979 345.533 105.891 345.533C105.803 345.533 105.718 345.568 105.655 345.63C105.593 345.693 105.558 345.778 105.558 345.866V347.533H103.891C103.803 347.533 103.718 347.568 103.655 347.63C103.593 347.693 103.558 347.778 103.558 347.866C103.558 347.954 103.593 348.039 103.655 348.102C103.718 348.164 103.803 348.199 103.891 348.199H105.558Z" fill="#FB923C"/>
<g clip-path="url(#clip9_1762_4992)">
<path d="M49.0245 312.483C50.4052 312.483 51.5245 313.602 51.5245 314.983C51.5245 316.364 50.4052 317.483 49.0245 317.483C47.6437 317.483 46.5245 316.364 46.5245 314.983C46.5245 313.602 47.6437 312.483 49.0245 312.483Z" fill="#FB923C"/>
</g>
<path d="M89.3245 41.2994V43.7994C89.3245 43.932 89.3772 44.0592 89.471 44.153C89.5647 44.2468 89.6919 44.2994 89.8245 44.2994C89.9571 44.2994 90.0843 44.2468 90.1781 44.153C90.2718 44.0592 90.3245 43.932 90.3245 43.7994V41.2994H92.8245C92.9571 41.2994 93.0843 41.2468 93.1781 41.153C93.2718 41.0592 93.3245 40.932 93.3245 40.7994C93.3245 40.6668 93.2718 40.5397 93.1781 40.4459C93.0843 40.3521 92.9571 40.2994 92.8245 40.2994H90.3245V37.7994C90.3245 37.6668 90.2718 37.5397 90.1781 37.4459C90.0843 37.3521 89.9571 37.2994 89.8245 37.2994C89.6919 37.2994 89.5647 37.3521 89.471 37.4459C89.3772 37.5397 89.3245 37.6668 89.3245 37.7994V40.2994H86.8245C86.6919 40.2994 86.5647 40.3521 86.471 40.4459C86.3772 40.5397 86.3245 40.6668 86.3245 40.7994C86.3245 40.932 86.3772 41.0592 86.471 41.153C86.5647 41.2468 86.6919 41.2994 86.8245 41.2994H89.3245Z" fill="#FB923C"/>
<path d="M3.25076 164.52L2.5143 165.257C2.49441 165.276 2.47854 165.299 2.46762 165.325C2.4567 165.35 2.45095 165.377 2.45071 165.405C2.45047 165.433 2.45574 165.46 2.46622 165.486C2.47669 165.511 2.49216 165.535 2.51172 165.554C2.53128 165.574 2.55454 165.589 2.58015 165.6C2.60575 165.61 2.63318 165.615 2.66085 165.615C2.68851 165.615 2.71585 165.609 2.74126 165.598C2.76668 165.587 2.78967 165.571 2.80889 165.552L3.54555 164.815L4.28201 165.552C4.30123 165.571 4.32422 165.587 4.34964 165.598C4.37505 165.609 4.40239 165.615 4.43005 165.615C4.45772 165.615 4.48515 165.61 4.51075 165.6C4.53636 165.589 4.55962 165.574 4.57918 165.554C4.59874 165.535 4.61421 165.511 4.62468 165.486C4.63516 165.46 4.64043 165.433 4.64019 165.405C4.63995 165.377 4.6342 165.35 4.62328 165.325C4.61237 165.299 4.59649 165.276 4.5766 165.257L3.84014 164.52L4.5766 163.784C4.59649 163.765 4.61237 163.742 4.62328 163.716C4.6342 163.691 4.63995 163.663 4.64019 163.636C4.64043 163.608 4.63516 163.581 4.62468 163.555C4.61421 163.529 4.59874 163.506 4.57918 163.487C4.55962 163.467 4.53636 163.452 4.51075 163.441C4.48515 163.431 4.45772 163.425 4.43005 163.426C4.40239 163.426 4.37505 163.432 4.34964 163.443C4.32422 163.453 4.30123 163.469 4.28201 163.489L3.54555 164.226L2.80889 163.489C2.78967 163.469 2.76668 163.453 2.74126 163.443C2.71585 163.432 2.68851 163.426 2.66085 163.426C2.63318 163.425 2.60575 163.431 2.58015 163.441C2.55454 163.452 2.53128 163.467 2.51172 163.487C2.49216 163.506 2.47669 163.529 2.46622 163.555C2.45574 163.581 2.45047 163.608 2.45071 163.636C2.45095 163.663 2.4567 163.691 2.46762 163.716C2.47854 163.742 2.49441 163.765 2.5143 163.784L3.25076 164.52V164.52Z" fill="#FB923C"/>
<path d="M101.703 574.562L99.494 576.772C99.4343 576.83 99.3867 576.899 99.3539 576.975C99.3211 577.051 99.3039 577.133 99.3032 577.216C99.3025 577.299 99.3183 577.381 99.3497 577.458C99.3811 577.535 99.4275 577.605 99.4862 577.663C99.5449 577.722 99.6147 577.768 99.6915 577.8C99.7683 577.831 99.8506 577.847 99.9336 577.846C100.017 577.846 100.099 577.828 100.175 577.796C100.251 577.763 100.32 577.715 100.378 577.656L102.588 575.446L104.797 577.656C104.855 577.715 104.924 577.763 105 577.796C105.076 577.828 105.158 577.846 105.241 577.846C105.324 577.847 105.406 577.831 105.483 577.8C105.56 577.768 105.63 577.722 105.689 577.663C105.747 577.605 105.794 577.535 105.825 577.458C105.857 577.381 105.872 577.299 105.872 577.216C105.871 577.133 105.854 577.051 105.821 576.975C105.788 576.899 105.741 576.83 105.681 576.772L103.471 574.563L105.681 572.353C105.741 572.295 105.788 572.226 105.821 572.15C105.854 572.073 105.871 571.991 105.872 571.908C105.872 571.825 105.857 571.743 105.825 571.666C105.794 571.589 105.747 571.52 105.689 571.461C105.63 571.402 105.56 571.356 105.483 571.324C105.406 571.293 105.324 571.277 105.241 571.278C105.158 571.279 105.076 571.296 105 571.329C104.924 571.361 104.855 571.409 104.797 571.469L102.588 573.678L100.378 571.469C100.32 571.409 100.251 571.361 100.175 571.329C100.099 571.296 100.017 571.279 99.9336 571.278C99.8506 571.277 99.7683 571.293 99.6915 571.324C99.6147 571.356 99.5449 571.402 99.4862 571.461C99.4275 571.52 99.3811 571.589 99.3497 571.666C99.3183 571.743 99.3025 571.825 99.3032 571.908C99.3039 571.991 99.3211 572.073 99.3539 572.15C99.3867 572.226 99.4343 572.295 99.494 572.353L101.703 574.563V574.562Z" fill="#FB923C"/>
<path d="M9.28839 6.30005V8.80005C9.28839 8.93266 9.34107 9.05983 9.43484 9.1536C9.52861 9.24737 9.65578 9.30005 9.78839 9.30005C9.921 9.30005 10.0482 9.24737 10.1419 9.1536C10.2357 9.05983 10.2884 8.93266 10.2884 8.80005V6.30005H12.7884C12.921 6.30005 13.0482 6.24737 13.1419 6.1536C13.2357 6.05983 13.2884 5.93266 13.2884 5.80005C13.2884 5.66744 13.2357 5.54026 13.1419 5.4465C13.0482 5.35273 12.921 5.30005 12.7884 5.30005H10.2884V2.80005C10.2884 2.66744 10.2357 2.54026 10.1419 2.4465C10.0482 2.35273 9.921 2.30005 9.78839 2.30005C9.65578 2.30005 9.52861 2.35273 9.43484 2.4465C9.34107 2.54026 9.28839 2.66744 9.28839 2.80005V5.30005H6.78839C6.65578 5.30005 6.52861 5.35273 6.43484 5.4465C6.34107 5.54026 6.28839 5.66744 6.28839 5.80005C6.28839 5.93266 6.34107 6.05983 6.43484 6.1536C6.52861 6.24737 6.65578 6.30005 6.78839 6.30005H9.28839Z" fill="#FB923C"/>
<path d="M76.4411 520.249V522.333C76.4411 522.443 76.485 522.549 76.5632 522.627C76.6413 522.705 76.7473 522.749 76.8578 522.749C76.9683 522.749 77.0743 522.705 77.1524 522.627C77.2306 522.549 77.2745 522.443 77.2745 522.333V520.249H79.3578C79.4683 520.249 79.5743 520.205 79.6524 520.127C79.7306 520.049 79.7745 519.943 79.7745 519.833C79.7745 519.722 79.7306 519.616 79.6524 519.538C79.5743 519.46 79.4683 519.416 79.3578 519.416H77.2745V517.333C77.2745 517.222 77.2306 517.116 77.1524 517.038C77.0743 516.96 76.9683 516.916 76.8578 516.916C76.7473 516.916 76.6413 516.96 76.5632 517.038C76.485 517.116 76.4411 517.222 76.4411 517.333V519.416H74.3578C74.2473 519.416 74.1413 519.46 74.0632 519.538C73.985 519.616 73.9411 519.722 73.9411 519.833C73.9411 519.943 73.985 520.049 74.0632 520.127C74.1413 520.205 74.2473 520.249 74.3578 520.249H76.4411Z" fill="#FB923C"/>
<path d="M26.5865 191.033L25.4082 192.211C25.3764 192.242 25.351 192.279 25.3335 192.32C25.316 192.36 25.3068 192.404 25.3065 192.448C25.3061 192.493 25.3145 192.536 25.3313 192.577C25.348 192.618 25.3728 192.656 25.4041 192.687C25.4354 192.718 25.4726 192.743 25.5136 192.76C25.5545 192.776 25.5984 192.785 25.6427 192.785C25.6869 192.784 25.7307 192.775 25.7713 192.757C25.812 192.74 25.8488 192.715 25.8795 192.683L27.0582 191.504L28.2365 192.683C28.2673 192.715 28.3041 192.74 28.3447 192.757C28.3854 192.775 28.4291 192.784 28.4734 192.785C28.5177 192.785 28.5616 192.776 28.6025 192.76C28.6435 192.743 28.6807 192.718 28.712 192.687C28.7433 192.656 28.768 192.618 28.7848 192.577C28.8016 192.536 28.81 192.493 28.8096 192.448C28.8092 192.404 28.8 192.36 28.7826 192.32C28.7651 192.279 28.7397 192.242 28.7079 192.211L27.5295 191.033L28.7079 189.854C28.7397 189.824 28.7651 189.787 28.7826 189.746C28.8 189.706 28.8092 189.662 28.8096 189.618C28.81 189.573 28.8016 189.529 28.7848 189.488C28.768 189.447 28.7433 189.41 28.712 189.379C28.6807 189.348 28.6435 189.323 28.6025 189.306C28.5616 189.289 28.5177 189.281 28.4734 189.281C28.4291 189.282 28.3854 189.291 28.3447 189.308C28.3041 189.326 28.2673 189.351 28.2365 189.383L27.0582 190.561L25.8795 189.383C25.8488 189.351 25.812 189.326 25.7713 189.308C25.7307 189.291 25.6869 189.282 25.6427 189.281C25.5984 189.281 25.5545 189.289 25.5136 189.306C25.4726 189.323 25.4354 189.348 25.4041 189.379C25.3728 189.41 25.348 189.447 25.3313 189.488C25.3145 189.529 25.3061 189.573 25.3065 189.618C25.3068 189.662 25.316 189.706 25.3335 189.746C25.351 189.787 25.3764 189.824 25.4082 189.854L26.5865 191.033V191.033Z" fill="#FB923C"/>
<defs>
<clipPath id="clip0_1762_4992">
<rect width="11" height="11" fill="white" transform="matrix(-1 0 0 -1 139.024 392.999)"/>
</clipPath>
<clipPath id="clip1_1762_4992">
<rect width="7" height="7" fill="white" transform="matrix(-1 0 0 -1 107.99 213)"/>
</clipPath>
<clipPath id="clip2_1762_4992">
<rect width="8" height="8" fill="white" transform="matrix(-1 0 0 -1 109.973 101)"/>
</clipPath>
<clipPath id="clip3_1762_4992">
<rect width="10" height="10" fill="white" transform="matrix(-1 0 0 -1 46.0245 82.9994)"/>
</clipPath>
<clipPath id="clip4_1762_4992">
<rect width="10" height="10" fill="white" transform="matrix(-1 0 0 -1 78.9766 177)"/>
</clipPath>
<clipPath id="clip5_1762_4992">
<rect width="11" height="11" fill="white" transform="matrix(-1 0 0 -1 129.024 524.999)"/>
</clipPath>
<clipPath id="clip6_1762_4992">
<rect width="4" height="4" fill="white" transform="matrix(-1 0 0 -1 125.024 292.999)"/>
</clipPath>
<clipPath id="clip7_1762_4992">
<rect width="7" height="7" fill="white" transform="matrix(-1 0 0 -1 7.00006 259)"/>
</clipPath>
<clipPath id="clip8_1762_4992">
<rect width="6" height="6" fill="white" transform="matrix(-1 0 0 -1 11.9786 491)"/>
</clipPath>
<clipPath id="clip9_1762_4992">
<rect width="6" height="6" fill="white" transform="matrix(-1 0 0 -1 52.0245 317.999)"/>
</clipPath>
</defs>
</svg>
